<svg xmlns="http://www.w3.org/2000/svg" xmlns:xlink="http://www.w3.org/1999/xlink" version="1.1" x="0px" y="0px" viewBox="0 0 100 125" enable-background="new 0 0 100 100" xml:space="preserve"><path d="M89.2,25.9c-1,0.1-3.8,0.4-6.2,0.7c-2.4,0.3-4.4,0.5-4.5,0.6c0,0-0.1,2.1-0.1,5.7l0,5.6l-0.2,0c-1.5-0.1-1.8-0.1-2.2,0  c-0.9,0.2-1.7,0.8-2.1,1.4c-0.3,0.4-0.3,1.2-0.1,1.8c0.2,0.8,1.2,1.6,2.2,1.8c0.4,0.1,1.7,0.1,2.1,0c0.8-0.2,1.7-0.8,2.1-1.5  l0.2-0.4l0-5.3c0-2.9,0.1-5.3,0.1-5.4c0,0,3.7-0.5,7.2-0.9c1.1-0.1,2.1-0.2,2.2-0.2c0.1,0,0.1,0.4,0.1,3.7v3.6L89.6,37  c-1.7-0.3-3.1,0-4,1c-0.5,0.5-0.6,1-0.6,1.7c0.1,0.9,0.6,1.6,1.6,2.1c1.7,0.8,4,0.2,4.8-1.2l0.2-0.4l0-7.2l0-7.2l-0.3,0  C91.2,25.7,90.2,25.8,89.2,25.9z M39.6,28c-0.2,0.1-0.6,0.4-0.7,0.7c-0.2,0.4-0.1,0.9,0.3,2.1c0.2,0.6,0.4,1.1,0.3,1.1  c0,0.1-0.5-0.2-1.2-0.7c-3.3-2.2-3.5-2.4-4-2.4c-0.2,0-0.4,0.1-0.6,0.2c-0.3,0.1-0.4,0.2-0.5,0.5c-0.3,0.8-0.2,0.9,1.8,4.3  c0.7,1.2,1.3,2.3,1.3,2.3c0,0.1-0.6,0.4-1.3,0.7c-2.3,1.2-3.9,2.3-5.8,4.2c-2,2.1-3.2,3.7-4.6,6.5c-1,2.1-1.2,2.3-1.9,2.9  c-2.1,2-5.2,2.7-8.1,1.9c-0.9-0.3-2.2-0.9-2.9-1.5c-1.3-1-2-2.2-2.7-4.2c-0.4-1.2-0.6-1.5-1-1.5c-0.4,0-1,0.9-1.3,1.9  c-0.5,1.9,0.4,6.7,2,10.6c0.5,1.2,1.2,2.7,2,4.2c4.9,8.9,11.5,15.3,19.3,18.6c1.2,0.5,3.7,1.4,5,1.7l0.9,0.2l0,0.5  c0,0.3,0,1.6-0.2,2.9l-0.2,2.4l0.3,0.1c0.4,0.1,1.9,0,2.1-0.1c0.1,0,0.1-0.1,0.1-0.2c-0.1-0.4,0.3-4.7,0.4-4.8c0,0,2.7,0.2,3.3,0.3  l0.2,0v0.8c0,0.4-0.1,1.5-0.2,2.3c-0.1,0.8-0.2,1.6-0.2,1.6c0,0.1,2.4,0.2,2.5,0.2c0.1-0.1,0.5-3,0.5-3.9l0-1l1.3,0  c1.7,0,3.6-0.3,5.3-0.8l0.6-0.2l0.5,0.4c1.1,1,2.6,2,3.9,2.7c0.8,0.4,2.5,1,3.1,1.1c0.2,0,0.3,0.1,0.4,0.2c0,0.1,0.2,0.8,0.3,1.5  c0.3,1.5,0.2,1.4,0.9,1.3c0.3-0.1,0.4-0.1,0.4-0.2c0-0.1-0.1-0.6-0.2-1.3c-0.1-0.6-0.2-1.2-0.2-1.2c0,0,0.4,0,0.8,0l0.8,0l0.2,1.3  c0.2,1.2,0.2,1.4,0.3,1.4c0.2,0,0.9-0.1,1-0.2c0,0-0.1-0.6-0.2-1.2c-0.1-0.7-0.2-1.2-0.2-1.2c0,0,0.3,0,0.8,0c2,0,3.9-0.8,5.8-2.5  c0.4-0.3,0.9-0.9,1.2-1.2c1.6-2.2,2.3-5.9,1.6-8.8L73,74.1l0.9-1.1c0.5-0.6,0.9-1.2,1-1.3c0.2-0.3,0.2-0.8,0-1.1  c-0.3-0.4-0.5-0.4-2.3-0.5l-1.6,0l-0.7-0.7c-0.8-0.9-1.7-1.5-2.8-2.1c-0.5-0.2-0.8-0.4-0.8-0.4c0,0,0-0.3,0.1-0.6  c0.2-0.8,0.6-2.7,0.7-3.9c0.2-1.6,0.2-4.7-0.1-6.4l-0.2-1.3l1.2-1.1c3.1-2.8,4.3-4,4.5-4.4c0.2-0.4,0.3-0.9,0.1-1.2  c-0.2-0.4-1.5-0.7-7.6-1.4l-1.3-0.2l-0.6-0.9c-1.9-2.7-3-3.9-4.6-5.4c-1.9-1.7-3.9-2.9-6.3-3.9l-0.8-0.4l-1.9-2.2  c-2.1-2.5-3.4-3.9-3.8-4c-0.7-0.3-1.1,0.4-1.3,2l0,0.5l-1.9-1.9c-1.4-1.5-1.9-1.9-2.2-2C40.2,28,39.8,28,39.6,28z M56.2,45.2  c0.5,0.2,0.8,0.6,1.2,1.3c0.4,0.8,0.5,1.5,0.5,2.5c-0.1,1.5-0.7,2.4-1.6,2.2c-0.4-0.1-0.9-0.6-1.2-1.1c-0.8-1.6-0.7-4.4,0.2-4.9  C55.7,45,55.8,45,56.2,45.2z M61.2,65.9c0.3,0.2,0.8,0.6,1.1,0.8l0.5,0.4v-0.7c0-0.6,0-0.7,0.1-0.6c0.1,0,0.5,0.4,1,0.9  c0.9,0.9,1,0.9,1.7,1.1c1.6,0.5,3,1.4,4.1,2.7l0.7,0.7l0.7,0c0.4,0,1.2,0.1,1.7,0.1h1l-0.3,0.4c-0.2,0.2-0.7,0.8-1,1.2l-0.7,0.8  l0.1,0.5c0.7,2.6,0.4,5.8-0.8,7.9c-0.7,1.2-2.5,2.8-4.1,3.4c-1,0.4-1.3,0.5-3.7,0.4c-1.2,0-2.4,0-2.7-0.1c-3.8-0.6-7.4-3-10.1-6.9  c-1-1.5-1.7-2.9-2.1-4.6c0-0.2,0-0.2,0.2,0.1c0.3,0.4,0.9,1,1.3,1.2c1.6,0.8,3.5,0.5,4.7-0.7c0.4-0.4,0.6-0.7,1-1.8  c0.6-1.9,1.8-3.5,3.4-4.5c1-0.7,1-0.8,0-2c-0.4-0.5-0.7-0.9-0.7-0.9c0,0,0.4,0.2,0.9,0.4c1,0.5,1.4,0.6,1.5,0.2  c0.1-0.4,0.1-0.5-0.1-0.9c-0.2-0.3-0.2-0.4-0.1-0.3C60.5,65.4,60.8,65.6,61.2,65.9z M66.9,70.2c-0.4,0.2-0.5,0.5-0.5,1.1  c-0.1,1.6,1,2.9,2,2.3c0.8-0.5,0.6-2.4-0.3-3.2C67.7,70.1,67.2,70,66.9,70.2z M67.9,71.2c0.3,0.3,0.4,0.8,0.4,1.2  c-0.1,0.3-0.3,0.5-0.5,0.4c-0.6-0.3-0.9-1.3-0.5-1.7C67.3,71,67.7,71,67.9,71.2z M80.8,63.4c-0.9,0.1-1.7,0.2-1.7,0.2  c0,0,0,0.7,0,1.6v1.6h-0.4c-0.7,0-1.1,0.4-1,0.9c0.2,0.7,1.5,0.7,1.8,0.1c0.1-0.1,0.1-0.7,0.1-1.6c0-1.4,0-1.5,0.2-1.5  c0.2-0.1,2.1-0.3,2.3-0.3h0.2v1v1h-0.4c-0.4,0-0.5,0-0.7,0.2c-0.2,0.2-0.2,0.2-0.2,0.5c0,0.5,0.2,0.7,0.9,0.7c0.5,0,0.5,0,0.7-0.2  l0.3-0.3v-2.1c0-1.9,0-2-0.1-2C82.5,63.2,81.7,63.3,80.8,63.4z"/><text x="0" y="115" fill="#000000" font-size="5px" font-weight="bold" font-family="'Helvetica Neue', Helvetica, Arial-Unicode, Arial, Sans-serif">Created by misirlou</text><text x="0" y="120" fill="#000000" font-size="5px" font-weight="bold" font-family="'Helvetica Neue', Helvetica, Arial-Unicode, Arial, Sans-serif">from the Noun Project</text></svg>